<svg width="928" height="928" viewBox="0 0 928 928" fill="none" xmlns="http://www.w3.org/2000/svg">
<rect width="928" height="928" rx="158.439" fill="#000000"/>
<path d="M533.99 464.352L533.99 417.145C546.39 415.33 557.31 411.951 566.74 407.008C576.18 402.066 584.18 396.014 590.76 388.852C597.33 381.69 602.3 373.671 605.65 364.795C609 356.019 610.67 346.689 610.67 336.804C610.67 318.95 605.15 302.962 594.11 288.841C583.06 274.82 566.87 263.725 545.53 255.554C524.18 247.485 498.13 243.45 467.35 243.45C436.33 243.45 410.15 247.485 388.81 255.554C367.46 263.724 351.33 274.87 340.41 288.992C329.49 303.114 324.03 319 324.03 336.652C324.03 346.437 325.65 355.717 328.87 364.492C332.22 373.369 337.12 381.388 343.58 388.549C350.03 395.711 357.91 401.763 367.22 406.706C376.65 411.749 387.44 415.229 399.6 417.145L399.42 464.352C380.68 461.83 363.43 456.938 347.67 449.676C332.04 442.514 318.51 433.284 307.1 421.987C295.8 410.791 287.06 397.98 280.85 383.556C274.65 369.132 271.55 353.397 271.55 336.35C271.55 309.519 279.36 285.613 295 264.632C310.76 243.652 333.28 227.109 362.56 215.005C391.85 203.002 426.78 197 467.35 197C508.05 197 542.98 203.052 572.14 215.156C601.43 227.261 623.89 243.803 639.52 264.784C655.28 285.764 663.16 309.62 663.16 336.35C663.16 352.791 660.24 368.123 654.41 382.346C648.7 396.669 640.27 409.53 629.1 420.928C618.05 432.326 604.53 441.757 588.52 449.222C572.64 456.686 554.46 461.729 533.99 464.352Z" fill="white"/>
<path d="M374.1 731.7L419.22 421.975L371.05 411.694L325.94 667.09L211.3 639.45L200.38 691.9L374.1 731.7Z" fill="white"/>
<path d="M553.89 731.7L508.77 421.975L556.94 411.694L602.06 667.09L716.7 639.45L727.61 691.9L553.89 731.7Z" fill="white"/>
<path fill-rule="evenodd" clip-rule="evenodd" d="M409.82 285.104C407.35 291.768 406 298.976 406 306.5C406 340.466 433.53 368 467.5 368C501.47 368 529 340.466 529 306.5C529 299.02 527.66 291.852 525.22 285.222C556.05 295.871 576.55 314.776 576.55 336.324C576.55 369.598 527.66 396.572 467.35 396.572C407.04 396.572 358.15 369.598 358.15 336.324C358.15 314.697 378.81 295.732 409.82 285.104Z" fill="white"/>
<circle cx="467.5" cy="306.5" r="34.5" fill="#FF4000"/>
</svg>
